# xmcd
#
# Track frame offsets:
#	150
#	22666
#	47276
#	59910
#	88692
#	99188
#	126521
#	144658
#	162616
#	179953
#	201763
#	225020
#
# Disc length: 3361 seconds
#
# Revision: 1
# Processed by: cddbd v1.5.2PL0 Copyright (c) Steve Scherf et al.
# Submitted via: audiograbber 1.81.03
#
DISCID=a10d1f0c
DTITLE=STUDIO II - Secret Tapes
DYEAR=2002
DGENRE=R&B
TTITLE0=STUDIO II - INTRO
TTITLE1=OH MY GARDEN - SUMMER SALVATION
TTITLE2=ACTION LADIES - MESS WITH YOU
TTITLE3=LOW GRAVITY - THE AGGRESSIVE LINE BETWEEN RED and BLACK
TTITLE4=INTERSTELLAR OVERDRIVE - HAPPY HOUR
TTITLE5=GEORGE STATHOPOULOS - RIVER
TTITLE6=SERPENTINE - HOW TIME FLIES
TTITLE7=TEARDROPS - DON'T BREAK ME DOWN
TTITLE8=TE VER.8.ET - TEMA TE TRAJTUARA NGA TE VER.8.ET
TTITLE9=FADEOUT - SANCTUARY
TTITLE10=SUNRISE PLASMA - WORDS OF ME
TTITLE11=B.B.Q - SCUMSTER
EXTD=
EXTT0=
EXTT1=
EXTT2=
EXTT3=
EXTT4=
EXTT5=
EXTT6=
EXTT7=
EXTT8=
EXTT9=
EXTT10=
EXTT11=
PLAYORDER=
